<?xml version="1.0" encoding="utf-8"?>
<!-- Generator: Adobe Illustrator 16.0.4, SVG Export Plug-In . SVG Version: 6.00 Build 0)  -->
<!DOCTYPE svg PUBLIC "-//W3C//DTD SVG 1.1//EN" "http://www.w3.org/Graphics/SVG/1.1/DTD/svg11.dtd">
<svg version="1.1" id="Layer_1" xmlns="http://www.w3.org/2000/svg" xmlns:xlink="http://www.w3.org/1999/xlink" x="0px" y="0px"
	 width="33.07px" height="49.605px" viewBox="0 0 33.07 49.605" enable-background="new 0 0 33.07 49.605" xml:space="preserve">
<g>
	<path fill="#D2515E" d="M33.07,16.535C33.07,7.403,25.667,0,16.535,0S0,7.404,0,16.535c0,7.059,4.432,13.068,10.658,15.44
		l5.877,17.631l5.878-17.631C28.638,29.604,33.07,23.595,33.07,16.535z M17.306,24.043c-0.254,0.026-0.511,0.039-0.771,0.039
		c-0.26,0-0.518-0.013-0.771-0.039c-3.805-0.386-6.774-3.6-6.774-7.507c0-4.167,3.379-7.546,7.546-7.546
		c3.907,0,7.12,2.97,7.507,6.774c0.026,0.254,0.039,0.511,0.039,0.771C24.081,20.444,21.112,23.657,17.306,24.043z"/>
</g>
</svg>
